<svg xmlns="http://www.w3.org/2000/svg" viewBox="-50 -50 100 100" width="24" height="24" fill="none" stroke="black" stroke-width="4">
  <!-- main gear body -->
  <circle r="30"/>
  <!-- teeth -->
  <g>
    <rect x="-4" y="-42" width="8" height="12"/>
    <rect x="-4" y="-42" width="8" height="12" transform="rotate(30)"/>
    <rect x="-4" y="-42" width="8" height="12" transform="rotate(60)"/>
    <rect x="-4" y="-42" width="8" height="12" transform="rotate(90)"/>
    <rect x="-4" y="-42" width="8" height="12" transform="rotate(120)"/>
    <rect x="-4" y="-42" width="8" height="12" transform="rotate(150)"/>
    <rect x="-4" y="-42" width="8" height="12" transform="rotate(180)"/>
    <rect x="-4" y="-42" width="8" height="12" transform="rotate(210)"/>
    <rect x="-4" y="-42" width="8" height="12" transform="rotate(240)"/>
    <rect x="-4" y="-42" width="8" height="12" transform="rotate(270)"/>
    <rect x="-4" y="-42" width="8" height="12" transform="rotate(300)"/>
    <rect x="-4" y="-42" width="8" height="12" transform="rotate(330)"/>
  </g>
  <!-- central hub -->
  <circle r="12"/>
</svg>
