<?xml version="1.0" encoding="UTF-8"?><svg id="Assets" xmlns="http://www.w3.org/2000/svg" viewBox="0 0 5469.38 3064.49"><defs><style>.cls-1{fill:#faf8d5;stroke:#000;stroke-miterlimit:10;}</style></defs><g id="Greater_Hogshire"><g id="Counties"><a href="charmscheck.com/hogsmeade-valley"><g id="Hogsmeade_Valley"><title>Hogsmeade Valley</title><path class="cls-1 selectable" d="m3705.43,883.66l6.75-5.25,2.62-9,.38-10.12-4.12-9.38h-7.12l-7.5,5.62-1.88,4.88-8.25,3.38-7.12-3.75-9-6.38-3.75-10.5,5.45-13.72s8.88-3.6,14.4-4.32,11.76,2.16,11.76,2.16l51.36-28.56,2.53-17.43v-14.25s0-14.25,3.38-22.5,2.25-16.12,2.25-16.12c0,0,54.38-17.25,64.5-22.12s17.62-28.29,17.62-28.29h193.5l162.74-101.84,192.76-31.5h283.51l355.06,266.68,148.94-46.18,103.5-65.7,117,20.35,71.97-40.7v445.91l-155.12,290.81-115.98-50.77-38.81-44.74-32.91-31.19-69.19-13.5-41.7,8.54-1.35-.05-.58.27-1.19,1.18-4.57,1.69-2.37.67-1.69.34-1.69,1.35-1.69.84-2.2.51-1.02.51-3.05,2.36-2.03.84-1.86.51-6.26,4.22-3.56,1.35-3.39,1.18-2.71.67-3.72-.51-3.56-.67-2.2-.34h-5.93l-2.54,1.01-2.54,1.35-4.74-.51-2.37-.51h-2.71l-2.37.34-3.05-.34-3.72-.17-3.39-.34-4.23-.51-2.03-1.18-2.37-2.7-1.19-2.19-3.22-.84-2.88.17-4.23-.67-3.56-3.37-3.22-.51-3.05-.84-2.37-.17-2.37-.34-2.71-.51-2.88-.67-2.03-.67-2.54-.34-2.03-.34h-1.86l-1.86-.34-1.52.67h-1.52l-1.86.34-1.52.51-1.86.34-2.2.34-2.03.34-3.22-.17-2.37.84-1.86.84h-2.88l-1.35-.51-2.54-.17-2.54-.34-1.19-.51h-1.69l-1.86-.17-2.37.51-1.69.67-1.35.67-1.19.51-.85.17h-1.35l-1.69-.17h-1.52l-1.02-.34-2.03-.34h-1.69l-2.03.17-1.86.34h-2.03l-1.69-.67h-3.72l-2.88-.17-2.54-.67-2.2-1.01-1.19-.84-1.02-2.02-.68-1.35-1.35-1.52-1.19-.17h-3.39l-1.02-1.01-1.52-1.52-1.86-1.86-1.52-1.35h-1.35l-2.54-1.01-3.22-.67h-1.69l-2.54-.17-3.22-.67-2.37-.67-2.71-.51-3.56-.34-2.71-.34-1.52.17-2.71.67-3.56.67-2.54.34-5.76.67-4.57.17h-4.06l-2.2.17-1.86.17-2.54-1.18-1.35-1.01-1.86-1.52-1.52-.84-2.71-.34-2.54-.34-2.54-.67-3.22-.84-1.69-.67h-1.86l-1.35.51-1.52.17-1.69-.34-1.35-.67h-3.05l-1.19.17-1.52.67-2.03,1.86-1.02,1.35-1.35,1.35-1.69,1.69-1.35.84-.68,1.18-.68,1.18-1.02,2.02-2.88,1.69-3.05,1.86-3.39,1.86-2.71,1.86-4.06,1.52-2.03,1.69-2.54,1.52-2.2.51-4.23,2.7-3.22,1.86-3.22,1.01-3.05.84-2.37,1.01-5.59-.84-1.69-.51-2.03.17-2.03.17-1.35,1.18-.34,2.53-.68,2.19-.17,3.71.85,2.19,2.03,2.19.68,2.02-.17,1.86-.51,1.52-.85.51-1.86.34h-1.86l-2.37.51-2.71.84-2.54.34-2.71-.17-1.52-.67-2.2-.84-2.37-1.01-1.69-.67-.68-1.18-1.52-1.69-1.02-1.52-1.02-1.01-1.35-.67-2.54-.67-2.88-.84-2.37-.67-1.69-1.69-1.52-1.52-1.02-1.18-2.71-.84-3.05-.67-3.22-2.02-1.69-1.35-1.86-1.01-2.71-.17-2.71-.17-2.37-1.52-1.69-1.01-2.03-.51h-2.2l-1.35.34-2.2.34h-1.86l-2.37-1.35-1.52-.17-2.88,1.01-2.03-.34-16.59-3.2-4.06-1.35-4.74-.34h-3.89l-3.89.34-2.37.67-1.69.17-1.35-.51.17-1.18-11.85-5.23-1.86-.17-3.39.51-5.25-1.69-3.56-1.35-3.22-.84-2.88.34.68-1.69v-1.69l-.68-1.01-9.82-4.05-5.59-.34,1.86-3.2v-1.18l-3.39-7.93-.85-2.19.34-.51-.51-2.02-.51-.17-2.03-1.01-1.52-1.35-2.84.59-10.97-2.67-8.16-4.78-4.22-5.91-7.31-6.33-9.98-.7-5.62-.98-3.52-4.08v-2.67l-5.06-2.39-6.33-1.41h-4.11l-5.62.11-.67-.46-3.59.04-.42-.32-.81-.11-1.62-.39-.39-.49-1.69-.63-.95-.6-2.43.07-.67-.6-.88-.04-1.12-.56-1.37-1.12-1.41-1.34-.7-1.37-1.51-.77-1.41-1.55-.74-1.09-1.37-.53-1.09-.6-1.2-.28-.91-1.41-.77-.11-.67-.88-1.48-.21-1.27-.25-1.97.04-.56-.74-.74-1.16-.98.35-1.2.11-1.12-.14-1.12-.28-1.02-.35-1.12-.56-1.3-.53-.98-.28-1.23-.46-2.85-.11-1.48.53-2.43.63-1.97.35-2.95.18-3.23-.14-.74-.6-.98-.18-.95-.53-4.04,3.34-2.18,2.88-3.83,2.64-2.43,1.83-3.13,1.72-2.64,1.65-3.73.88-2.64-.21-.88-.42h-2.74l-.49-.32-3.41-.04-1.41.42-3.41.04-2.39-.14-.7-.95-.88-1.48-1.34-2-1.16-2.04-.95-1.9-.81-.88-1.12-.04-2.64,2.14-2.32,1.12-2.25.63-2.36.04-3.02,2.29-2.36,1.05-1.83-.18-1.09-.53-.42-1.97-.74-3.45-1.05-1.83-.25-1.3-2.67-.14-.53-.84-1.34-.63-1.02-1.09-.95-1.37-1.02-2.36-.39-3.94,1.02-3.94v-6.08l-.49-4.57-.35-4.61-1.12-1.97-1.02-1.27-.7-1.02-.91-.95-1.02-.28-.49-.81h-2.07l-1.44.14-.77-.42-.67-1.34-.84-.95-.88-.21-.88.32-1.72,1.62-1.51,4.29-2.95,3.2-2.32,1.65-1.55,1.65-1.23,2.43-.7,5.1-.91,2.92-1.69,3.45-2,2.71-2.92,3.41-1.69,2.11-2.36.77-2.71.91-3.3,1.37-2.36,1.09-3.13,1.51-2.78,1.27-1.93.98-1.86,1.44s-2.18,1.86-2.5,1.93-1.69,1.12-1.79,1.2-1.76,1.05-1.76,1.05l-1.9,1.2-1.83.91-1.97-.07-.42-.63-.67-.21s-.81-.46-.84-.56-.35-1.51-.35-1.51l-.98-.81-1.02-.67-.84-.56-1.69-.53-1.34-.04-.81.28-2.53.81-1.97.91-1.58,1.12-3.23,2.32-2.43.84-1.41.46-1.55,1.02-2.39.81-1.58.39-1.72.84-1.72.53-2.5.56-2.67.39-2.14.46-1.93.7-2.57.49-2.21-.14.46-2.46,5.41-4.25,2.57-2.71.28-2.43.53-2.11,2-2.78,4.71-1.58,7.21-1.93,1.72-1.72.42-2.32-.84-3.34-.25-8.82-.56-1.34-.6-1.34-.18-1.37.28-1.44.49-2.04v-2.64l-.53-2.04-1.58-.49-1.62.07-2.07.88-2.04.74-2.43,1.62-1.9.46s-1.27-.42-1.3-.53-1.27-2.14-1.27-2.32-.56-2.32-.56-2.32l-.88-1.86-.74-.81-2,.14-1.72.81-2.64,4.39-2.67,4.57-1.79,2.36-2.29.6-1.16-.21-.39-.7-1.83-.28-1.97,1.12-2.81,3.8v4.36l-1.05,4.08-3.34,5.2-1.76,2.39-1.55,2.71-4.46,7.84-.49,2.64-.18,3.06s2.39,3.09,2.5,3.2,2.92.53,2.92.53l2.11-2.32,2.6-1.72,1.65,3.02-.39,3.97-1.48,1.91-1.23,1.08-1.76,1.09h-4.43l-.88-.81-1.48-1.36-.98-.54-1.27-.81-1.12-.6-.91-.53-1.3-.53-.95-.7-.88-1.09-.49-1.55-.84-1.41-2.57-.04h-2.04l-.7-.25-.7-.81-.95-.84-1.37-1.55-.53-1.3-.6-1.23-.56-1.27-.88-.91-.63-.53-1.02-.25-.95-.25-1.27-.32-1.23-1.69-.91-.77-2.21-.11-1.9.18-1.58,1.09-2.32,1.76-2.46,1.65-1.37.18-4.11,1.3-1.69,1.55-1.51.53-1.2,1.51-2.43.77-1.83.39-1.12-.18-.49-.7-.6-.67-1.48-.11-1.37.63-1.58.7-1.72.98-.91,1.41s-.49,2.67-.49,2.78.21,1.97.21,1.97l.28,2.12-1.58,1.43-1.16.74h-2.95l-.81-.39-1.41-.74-1.05-.46-1.48-.18-1.16.63-4.89.28-1.55-.18-.88-.49-1.2-.49-.46-.63-1.27-.67-.63-1.16-.81-.7-.63-1.2-.84-1.02-.98-.81-.98-.28-1.83.28-1.3.7-1.62.81-1.79,1.83-1.65,1.09-2.53.67-1.86.07-1.37-.39-1.86-.11-1.3.6-1.93.32-1.65.43-.91.16-2.04-.16h-2.11l-.53-.43-.46-.42-1.23-.07-1.02-.35-.81-.46-.56.53-1.44.28-1.23.07-1.51.42h-4.99l-.49-.35-2.18-.18-.91-.77-.63-.39-1.23-.42-1.02-.56-.56-.46-1.23-.11-.77-1.16-1.27-.56-1.02-.46-1.12-.25-1.37-.39-1.23-1.09-1.44-1.83-.88-3.55-1.16-3.55-1.37-4.61-.77-1.65-1.34-1.79-1.2,2.53-.88,4.15-1.02,4.29-1.27,2.5-1.86,1.37-1.55.32-1.27.14-1.51,1.51-1.72,1.72-1.83,1.55-1.44.56-1.48.74-1.27.04-1.58.14-1.41-.04-1.55-.18-.84-.63-.91-.67-1.09-.42-.77-.77-1.3-.77-1.02-1.58-1.05-1.58-1.62-.88-1.93-.84-1.41-.25-.91.49-1.48.04-1.2.11-1.05.39-1.3,1.97-.88,1.2-1.83.14-2.78-.28-1.72-1.05-.95-.67s-1.34-.07-1.2-.07-1.23-.53-1.23-.53l-2-.98-.74-2.46-.6-2.11-1.34-1.37-1.79.39-2.21.98-1.12.98-1.27,2.11-.91,3.55-.7,3.2-1.27,2.32-1.86,1.62-2.07.39-1.16-.25-1.48.07-1.27.11-1.27.56h-3.55l-.95-.77-1.05-.77-1.37-.7-1.76-1.48-2.14-1.9-.46-1.51-.11-1.05.7-2.64,4.61-4.22,3.8-3.13,1.44-1.9v-1.51l-2.07-.95-4.36-.53-2.81,3.23-2.53,1.55-2.81-.42-1.97,1.83-5.91,12.94-2.39,1.41-4.64.14-3.8-.84-4.36-.56-3.94-.98-5.2.14-5.06-1.27-3.09-.84-1.83.7-5.2,3.94-3.38,1.69-6.47-.7h-4.36l-3.38-3.23-2.25-.84-1.41-2.39-2.39-3.38h-1.55l-4.78,4.64-3.66.14-3.94-.84-3.09-2.11-3.52-2.67-2.67-3.8-1.27-3.23-2.67-9.7-2.25-2.67-4.92-1.41-2.11-2.95-3.52-2.11-6.61-3.23-3.94-4.08-1.41-6.47v-10.41l-1.12-10.41-.7-9.28-1.97-2.53-2.67.42-5.62,11.25-2.53,3.38-4.36,1.83-4.36,1.83-1.55,2.95,3.38,6.89,6.05,3.09,1.12,21.38,4.79,11.22,5.75,11.14-1.55,2.25h-5.77l-3.38-2.81s-1.55-1.41-3.66-3.66-3.66-4.92-3.66-4.92l-.7-4.78-1.97-.98-2.25,3.8-3.09,5.91-2.25,3.23-5.34.28-3.94-.7-3.94-.7-2.53-1.27-1.12.14-3.23.42-3.66-1.55-2.67,1.41-2.67,2.11-1.83,3.52-1.97,4.5-6.89,1.41-3.66-1.83-5.2-2.25-2.95-1.55-.99-2.39.99-4.92-3.52-5.62-3.09-6.75-1.12-4.64,3.23-4.36,1.12-4.36-3.38-5.34-.56-4.08-.7-9.28,6.19-1.41,1.83-3.23,2.53-4.92,1.83-6.05,3.52-7.31-2.53-2.81-3.23-3.94h-4.5l-5.2-1.55-3.94-2.11-4.78-5.34-2.81-5.06-.84-8.72.7-7.31-2.95-6.19.14-7.31-1.82-1.55-1.98-6.33,1.12-4.78,2.95-5.06,4.22-11.53,5.06-11-.42-4.19-7.59-7.45-2.53-4.64.14-4.08-.97-8.44-1.98-6.47s1.27-4.78,1.27-5.2v-5.62l-.56-5.06-.7-6.05,1.98-6.19-.99-6.33.99-4.36s6.74-7.73,6.74-8.16,2.95-5.62,2.95-6.05,1.83-6.61,1.83-6.61l1.12-6.89-.14-6.19-.84-6.89-1.22-8.25,5.98-9.13,6.48-3.6,13.2-1.92,8.64-4.56,5.04-6.24-2.96-11.67v-7.88"/></g></a><a href="charmscheck.com/hogsfield-county"><g id="Hogsfield"><title>Hogsfield County</title><path class="cls-1 selectable" d="m3666.43,843.16l5.45-13.72s8.88-3.6,14.4-4.32,11.76,2.16,11.76,2.16l51.36-28.56,2.53-17.43v-14.25s0-14.25,3.38-22.5,2.25-16.12,2.25-16.12c0,0,54.38-17.25,64.5-22.12s17.62-28.29,17.62-28.29l-99-133.34,40.5-126-17.81-151.82-388.83,63.29h-465.36l-527.27,77.55-500.39-77.55-20.16,71.37-5.91,103.78,24.47,112.22-24.47,82.69,8.72,46.97,293.55,64.35,266.7-62.1,121.5-60.75,308.25,36.86-31.5,53.14,8.16,14.34,21.94,9.28,102.94-7.59,47.25,10.97,203.34,29.53,77.62,7.97,135,14.81h83.53l71.72-13.5,92.25-1.31Z"/></g></a><a href="charmscheck.com/aranshire"><g id="Aranshire"><title>Aranshire</title><path class="cls-1 selectable" d="m5313.54,1415.83l-115.98-50.77-38.81-44.74-32.91-31.19-69.19-13.5-41.7,8.54-1.35-.05-.58.27-1.19,1.18-4.57,1.69-2.37.67-1.69.34-1.69,1.35-1.69.84-2.2.51-1.02.51-3.05,2.36-2.03.84-1.86.51-6.26,4.22-3.56,1.35-3.39,1.18-2.71.67-3.72-.51-3.56-.67-2.2-.34h-5.93l-2.54,1.01-2.54,1.35-4.74-.51-2.37-.51h-2.71l-2.37.34-3.05-.34-3.72-.17-3.39-.34-4.23-.51-2.03-1.18-2.37-2.7-1.19-2.19-3.22-.84-2.88.17-4.23-.67-3.56-3.37-3.22-.51-3.05-.84-2.37-.17-2.37-.34-2.71-.51-2.88-.67-2.03-.67-2.54-.34-2.03-.34h-1.86l-1.86-.34-1.52.67h-1.52l-1.86.34-1.52.51-1.86.34-2.2.34-2.03.34-3.22-.17-2.37.84-1.86.84h-2.88l-1.35-.51-2.54-.17-2.54-.34-1.19-.51h-1.69l-1.86-.17-2.37.51-1.69.67-1.35.67-1.19.51-.85.17h-1.35l-1.69-.17h-1.52l-1.02-.34-2.03-.34h-1.69l-2.03.17-1.86.34h-2.03l-1.69-.67h-3.72l-2.88-.17-2.54-.67-2.2-1.01-1.19-.84-1.02-2.02-.68-1.35-1.35-1.52-1.19-.17h-3.39l-1.02-1.01-1.52-1.52-1.86-1.86-1.52-1.35h-1.35l-2.54-1.01-3.22-.67h-1.69l-2.54-.17-3.22-.67-2.37-.67-2.71-.51-3.56-.34-2.71-.34-1.52.17-2.71.67-3.56.67-2.54.34-5.76.67-4.57.17h-4.06l-2.2.17-1.86.17-2.54-1.18-1.35-1.01-1.86-1.52-1.52-.84-2.71-.34-2.54-.34-2.54-.67-3.22-.84-1.69-.67h-1.86l-1.35.51-1.52.17-1.69-.34-1.35-.67h-3.05l-1.19.17-1.52.67-2.03,1.86-1.02,1.35-1.35,1.35-1.69,1.69-1.35.84-.68,1.18-.68,1.18-1.02,2.02-2.88,1.69-3.05,1.86-3.39,1.86-2.71,1.86-4.06,1.52-2.03,1.69-2.54,1.52-2.2.51-4.23,2.7-3.22,1.86-3.22,1.01-3.05.84-2.37,1.01-5.59-.84-1.69-.51-2.03.17-2.03.17-1.35,1.18-.34,2.53-.68,2.19-.17,3.71.85,2.19,2.03,2.19.68,2.02-.17,1.86-.51,1.52-.85.51-1.86.34h-1.86l-2.37.51-2.71.84-2.54.34-2.71-.17-1.52-.67-2.2-.84-2.37-1.01-1.69-.67-.68-1.18-1.52-1.69-1.02-1.52-1.02-1.01-1.35-.67-2.54-.67-2.88-.84-2.37-.67-1.69-1.69-1.52-1.52-1.02-1.18-2.71-.84-3.05-.67-3.22-2.02-1.69-1.35-1.86-1.01-2.71-.17-2.71-.17-2.37-1.52-1.69-1.01-2.03-.51h-2.2l-1.35.34-2.2.34h-1.86l-2.37-1.35-1.52-.17-2.88,1.01-2.03-.34-16.59-3.2-4.06-1.35-4.74-.34h-3.89l-3.89.34-2.37.67-1.69.17-1.35-.51.17-1.18-11.85-5.23-1.86-.17-3.39.51-5.25-1.69-3.56-1.35-3.22-.84-2.88.34.68-1.69v-1.69l-.68-1.01-9.82-4.05-5.59-.34,1.86-3.2v-1.18l-3.39-7.93-.85-2.19.34-.51-.51-2.02-.51-.17-2.03-1.01-1.52-1.35-2.84.59-10.97-2.67-8.16-4.78-4.22-5.91-7.31-6.33-9.98-.7-5.62-.98-3.52-4.08v-2.67l-5.06-2.39-6.33-1.41h-4.11l-5.62.11-.67-.46-3.59.04-.42-.32-.81-.11-1.62-.39-.39-.49-1.69-.63-.95-.6-2.43.07-.67-.6-.88-.04-1.12-.56-1.37-1.12-1.41-1.34-.7-1.37-1.51-.77-1.41-1.55-.74-1.09-1.37-.53-1.09-.6-1.2-.28-.91-1.41-.77-.11-.67-.88-1.48-.21-1.27-.25-1.97.04-.56-.74-.74-1.16-.98.35-1.2.11-1.12-.14-1.12-.28-1.02-.35-1.12-.56-1.3-.53-.98-.28-1.23-.46-2.85-.11-1.48.53-2.43.63-1.97.35-2.95.18-3.23-.14-.74-.6-.98-.18-.95-.53-4.04,3.34-2.18,2.88-3.83,2.64-2.43,1.83-3.13,1.72-2.64,1.65-3.73.88-2.64-.21-.88-.42h-2.74l-.49-.32-3.41-.04-1.41.42-3.41.04-2.39-.14-.7-.95-.88-1.48-1.34-2-1.16-2.04-.95-1.9-.81-.88-1.12-.04-2.64,2.14-2.32,1.12-2.25.63-2.36.04-3.02,2.29-2.36,1.05-1.83-.18-1.09-.53-.42-1.97-.74-3.45-1.05-1.83-.25-1.3-2.67-.14-.53-.84-1.34-.63-1.02-1.09-.95-1.37-1.02-2.36-.39-3.94,1.02-3.94v-6.08l-.49-4.57-.35-4.61-1.12-1.97-1.02-1.27-.7-1.02-.91-.95-1.02-.28-.49-.81h-2.07l-1.44.14-.77-.42-.67-1.34-.84-.95-.88-.21-.88.32-1.72,1.62-1.51,4.29-2.95,3.2-2.32,1.65-1.55,1.65-1.23,2.43-.7,5.1-.91,2.92-1.69,3.45-2,2.71-2.92,3.41-1.69,2.11-2.36.77-2.71.91-3.3,1.37-2.36,1.09-3.13,1.51-2.78,1.27-1.93.98-1.86,1.44s-2.18,1.86-2.5,1.93-1.69,1.12-1.79,1.2-1.76,1.05-1.76,1.05l-1.9,1.2-1.83.91-1.97-.07-.42-.63-.67-.21s-.81-.46-.84-.56-.35-1.51-.35-1.51l-.98-.81-1.02-.67-.84-.56-1.69-.53-1.34-.04-.81.28-2.53.81-1.97.91-1.58,1.12-3.23,2.32-2.43.84-1.41.46-1.55,1.02-2.39.81-1.58.39-1.72.84-1.72.53-2.5.56-2.67.39-2.14.46-1.93.7-2.57.49-2.21-.14.46-2.46,5.41-4.25,2.57-2.71.28-2.43.53-2.11,2-2.78,4.71-1.58,7.21-1.93,1.72-1.72.42-2.32-.84-3.34-.25-8.82-.56-1.34-.6-1.34-.18-1.37.28-1.44.49-2.04v-2.64l-.53-2.04-1.58-.49-1.62.07-2.07.88-2.04.74-2.43,1.62-1.9.46s-1.27-.42-1.3-.53-1.27-2.14-1.27-2.32-.56-2.32-.56-2.32l-.88-1.86-.74-.81-2,.14-1.72.81-2.64,4.39-2.67,4.57-1.79,2.36-2.29.6-1.16-.21-.39-.7-1.83-.28-1.97,1.12-2.81,3.8v4.36l-1.05,4.08-3.34,5.2-1.76,2.39-1.55,2.71-4.46,7.84-.49,2.64-.18,3.06s2.39,3.09,2.5,3.2,2.92.53,2.92.53l2.11-2.32,2.6-1.72,1.65,3.02-.39,3.97-1.48,1.91-1.23,1.08-1.76,1.09h-4.43l-.88-.81-1.48-1.36-.98-.54-1.27-.81-1.12-.6-.91-.53-1.3-.53-.95-.7-.88-1.09-.49-1.55-.84-1.41-2.57-.04h-2.04l-.7-.25-.7-.81-.95-.84-1.37-1.55-.53-1.3-.6-1.23-.56-1.27-.88-.91-.63-.53-1.02-.25-.95-.25-1.27-.32-1.23-1.69-.91-.77-2.21-.11-1.9.18-1.58,1.09-2.32,1.76-2.46,1.65-1.37.18-4.11,1.3-1.69,1.55-1.51.53-1.2,1.51-2.43.77-1.83.39-1.12-.18-.49-.7-.6-.67-1.48-.11-1.37.63-1.58.7-1.72.98-.91,1.41s-.49,2.67-.49,2.78.21,1.97.21,1.97l.28,2.12-1.58,1.43-1.16.74h-2.95l-.81-.39-1.41-.74-1.05-.46-1.48-.18-1.16.63-4.89.28-1.55-.18-.88-.49-1.2-.49-.46-.63-1.27-.67-.63-1.16-.81-.7-.63-1.2-.84-1.02-.98-.81-.98-.28-1.83.28-1.3.7-1.62.81-1.79,1.83-1.65,1.09-2.53.67-1.86.07-1.37-.39-1.86-.11-1.3.6-1.93.32-1.65.43-.91.16-2.04-.16h-2.11l-.53-.43-.46-.42-1.23-.07-1.02-.35-.81-.46-.56.53-1.44.28-1.23.07-1.51.42h-4.99l-.49-.35-2.18-.18-.91-.77-.63-.39-1.23-.42-1.02-.56-.56-.46-1.23-.11-.77-1.16-1.27-.56-1.02-.46-1.12-.25-1.37-.39-1.23-1.09-1.44-1.83-.88-3.55-1.16-3.55-1.37-4.61-.77-1.65-1.34-1.79-1.2,2.53-.88,4.15-1.02,4.29-1.27,2.5-1.86,1.37-1.55.32-1.27.14-1.51,1.51-1.72,1.72-1.83,1.55-1.44.56-1.48.74-1.27.04-1.58.14-1.41-.04-1.55-.18-.84-.63-.91-.67-1.09-.42-.77-.77-1.3-.77-1.02-1.58-1.05-1.58-1.62-.88-1.93-.84-1.41-.25-.91.49-1.48.04-1.2.11-1.05.39-1.3,1.97-.88,1.2-1.83.14-2.78-.28-1.72-1.05-.95-.67s-1.34-.07-1.2-.07-1.23-.53-1.23-.53l-2-.98-.74-2.46-.6-2.11-1.34-1.37-1.79.39-2.21.98-1.12.98-1.27,2.11-.91,3.55-.7,3.2-1.27,2.32-1.86,1.62-2.07.39-1.16-.25-1.48.07-1.27.11-1.27.56h-3.55l-.95-.77-1.05-.77-1.37-.7-1.76-1.48-2.14-1.9-.46-1.51-.11-1.05.7-2.64,4.61-4.22,3.8-3.13,1.44-1.9v-1.51l-2.07-.95-4.36-.53-2.81,3.23-2.53,1.55-2.81-.42-1.97,1.83-5.91,12.94-2.39,1.41-4.64.14-3.8-.84-4.36-.56-3.94-.98-5.2.14-5.06-1.27-3.09-.84-1.83.7-5.2,3.94-3.38,1.69-6.47-.7h-4.36l-3.38-3.23-2.25-.84-1.41-2.39-2.39-3.38h-1.55l-4.78,4.64-3.66.14-3.94-.84-3.09-2.11-3.52-2.67-2.67-3.8-1.27-3.23-2.67-9.7-2.25-2.67-4.92-1.41-2.11-2.95-3.52-2.11-6.61-3.23-3.94-4.08-1.41-6.47v-10.41l-1.12-10.41-.7-9.28-1.97-2.53-2.67.42-5.62,11.25-2.53,3.38-4.36,1.83-4.36,1.83-1.55,2.95,3.38,6.89,6.05,3.09,1.12,21.38,4.79,11.22,5.75,11.14-1.55,2.25h-5.77l-3.38-2.81s-1.55-1.41-3.66-3.66-3.66-4.92-3.66-4.92l-.7-4.78-1.97-.98-2.25,3.8-3.09,5.91-2.25,3.23-5.34.28-3.94-.7-3.94-.7-2.53-1.27-1.12.14-3.23.42-3.66-1.55-2.67,1.41-2.67,2.11-1.83,3.52-1.97,4.5-6.89,1.41-3.66-1.83-5.2-2.25-2.95-1.55-.99-2.39-4.41.33-7.41,3.28-5.62,7.41-8.44,18.28,2.96,6.94v172.03l-141.06,243-302.62,96.75-364.5,225-65.25,144-49.75,216-382.25,297-470.25,200.25-58.82,215.12h1919.6l349.02-193.88,542.92-355.43,678.65-575.17v-523.46Z"/></g></a><a href="charmscheck.com/marunweem-county"><g id="Marunweem"><title>Marunweem County</title><path class="cls-1 selectable" d="m3654.9,1247.69l8.44-18.28,5.62-7.41,7.41-3.28,4.41-.33.99-4.92-3.52-5.62-3.09-6.75-1.12-4.64,3.23-4.36,1.12-4.36-3.38-5.34-.56-4.08-.7-9.28,6.19-1.41,1.83-3.23,2.53-4.92,1.83-6.05,3.52-7.31-2.53-2.81-3.23-3.94h-4.5l-5.2-1.55-3.94-2.11-4.78-5.34-2.81-5.06-.84-8.72.7-7.31-2.95-6.19.14-7.31-1.82-1.55-1.98-6.33,1.12-4.78,2.95-5.06,4.22-11.53,5.06-11-.42-4.19-7.59-7.45-2.53-4.64.14-4.08-.97-8.44-1.98-6.47s1.27-4.78,1.27-5.2v-5.62l-.56-5.06-.7-6.05,1.98-6.19-.99-6.33.99-4.36s6.74-7.73,6.74-8.16,2.95-5.62,2.95-6.05,1.83-6.61,1.83-6.61l1.12-6.89-.14-6.19-.84-6.89-1.22-8.25,5.98-9.13,6.48-3.6,13.2-1.92,8.64-4.56,5.04-6.24-2.96-11.67v-7.88l.75-3.75,6.75-5.25,2.62-9,.38-10.12-4.12-9.38h-7.12l-7.5,5.62-1.88,4.88-8.25,3.38-7.12-3.75-9-6.38-3.75-10.5-92.25,1.31-71.72,13.5h-83.53v27l3.38,22.78-3.38,15.19v17.72l3.38,15.19,11.81,21.07,3.38,21.96,4.22,32.06-11.81,14.48-3.38,39.52,5.91,15.19s2.53,18.56,3.38,21.09,8.44,21.66,10.12,22.22,8.44,25.03,8.44,25.03c0,0-5.91,29.53-5.06,32.06s14.34,29.75,14.34,29.75l32.91,23.41,42.19-8.44,18.56,8.44,22.78,4.22,22.78-11.81,18.56,11.81h24.47l9-10.22Z"/></g></a><a href="charmscheck.com/iron-county"><g id="Irondale"><title>Iron County</title><polygon class="cls-1 selectable" points="136.44 1590.32 280.18 1632.53 310.56 1889.03 310.56 2103.61 194.61 2268.88 .71 1978.07 136.44 1590.32"/></g></a><a href="charmscheck.com/crag-county"><g id="Cragcroft"><title>Crag County</title><path class="cls-1 selectable" d="m310.56,1889.03l145.12,19.12,130.5,63,220.5,81,189,51.45,238.5,97.05,180,148.5,207,175.5s112.5,171,121.5,184.5,139.5,139.5,139.5,139.5l-58.82,215.12-601.09-290.81-213.29-368.36-814.38-135.71,115.95-165.28v-214.57Z"/></g></a><a href="charmscheck.com/pittshire"><g id="Pittshire"><title>Pittshire</title><polygon id="Pittshire" class="cls-1 selectable" points="5468.66 679.11 5396.68 719.8 5279.68 699.45 5176.18 765.16 5027.24 811.34 4906.18 719.8 4672.18 544.66 4388.68 544.66 4195.92 576.16 4033.18 678 3839.68 678 3740.68 544.66 3781.18 418.66 3763.38 266.84 4208.32 194.42 4615.5 .54 5139.03 194.42 5468.66 679.11"/></g></a><a href="charmscheck.com/bain-county"><g id="Bainburg"><title>Bain County</title><path class="cls-1 selectable" d="m2849.68,1991.41l-65.25,144-49.75,216-382.25,297-470.25,200.25s-130.5-126-139.5-139.5-121.5-184.5-121.5-184.5l-207-175.5,178.88-80.27,230.3-69.35,323.2-95.93,208.12-206.7"/></g></a><a href="charmscheck.com/brocshire"><g id="Brocburrow"><title>Brocshire</title><g id="Brocburrow-2"><path class="cls-1 selectable" d="m2854.18,725.52l-31.5,53.14,8.16,14.34,21.94,9.28,102.94-7.59,47.25,10.97,203.34,29.53,77.62,7.97,135,14.81v27l3.38,22.78-3.38,15.19v17.72l3.38,15.19,11.81,21.07,3.38,21.96,4.22,32.06-11.81,14.48-3.38,39.52,5.91,15.19s2.53,18.56,3.38,21.09,8.44,21.66,10.12,22.22,8.44,25.03,8.44,25.03c0,0-5.91,29.53-5.06,32.06s14.34,29.75,14.34,29.75l32.91,23.41,42.19-8.44,18.56,8.44,22.78,4.22,22.78-11.81,18.56,11.81h24.47l9-10.22,2.96,6.94v172.03l-141.06,243-302.62,96.75-364.5,225-495-94.5-297-306-357.75-333s-11.25-283.78-11.25-297.14,175.5-213.61,175.5-213.61c0,0,288,69.86,299.25,64.18s261-61.93,261-61.93l121.5-60.75,308.25,36.86Z"/></g></g></a><a href="charmscheck.com/keenbridge-county"><g id="Keenbridge"><title>Keenbridge County</title><polyline class="cls-1 selectable" points=".71 1357.67 275.68 1408.66 433.18 1395.16 653.68 1287.16 910.18 1257.91 1103.68 1300.66 1301.68 1246.66 1468.18 1257.91 1699.93 1257.91 2057.68 1590.91 2354.68 1896.91 2146.56 2103.61 1823.36 2199.53 1593.06 2268.88 1414.18 2349.16 1234.18 2200.66 995.68 2103.61 806.68 2052.16 586.18 1971.16 455.68 1908.16 310.56 1889.03 280.18 1632.53 136.44 1590.32"/></g></a><a href="charmscheck.com/feldshire"><g id="Feldcroft"><title>Feldshire</title><path class="cls-1 selectable" d="m.71,1357.67l274.97,50.99,157.5-13.5,220.5-108,256.5-29.25,193.5,42.75,198-54,166.5,11.25h231.75s-11.25-283.78-11.25-297.14,175.5-213.61,175.5-213.61l-8.72-46.97,24.47-82.69-24.47-112.22,5.91-103.78,20.16-71.37-426.58,38.78-367.5,135.38-524.43.33-273,193.88L.71,1357.67Z"/></g></g></g></a></svg>